<svg xmlns="http://www.w3.org/2000/svg" width="46" height="46" viewBox="0 0 46 46" fill="none">
<g clip-path="url(#clip0_67_924)">
<path fill-rule="evenodd" clip-rule="evenodd" d="M20.8376 24.7914L20.7211 34.6725C20.7056 35.6677 21.0191 35.9915 22.0283 35.9797L24.0111 35.9562C24.9822 35.9448 25.3371 35.6549 25.3494 34.6178L25.4719 24.1574L35.9329 24.0353C36.9143 24.0221 37.2594 23.6959 37.2717 22.6965L37.2948 20.7142C37.307 19.6856 36.969 19.3957 35.9876 19.407L26.106 19.523L26.222 9.64235C26.2333 8.66089 25.9434 8.32289 24.9147 8.33515L22.9325 8.35825C21.9326 8.37003 21.606 8.71463 21.5937 9.69704L21.4716 20.157L11.0111 20.2796C9.97405 20.2919 9.67895 20.6416 9.67283 21.6179L9.64878 23.6002C9.63276 24.6052 9.95661 24.9187 10.956 24.9074L20.8376 24.7914Z" fill="#4F4F4F"/>
</g>
<defs>
<clipPath id="clip0_67_924">
<rect width="32" height="32" fill="white" transform="translate(23) rotate(45)"/>
</clipPath>
</defs>
</svg>