<svg width="60" height="8" viewBox="0 0 60 8" fill="none" xmlns="http://www.w3.org/2000/svg">
<g id="Group 420">
<g id="Group 3">
<path id="Path" fill-rule="evenodd" clip-rule="evenodd" d="M4 8C6.209 8 8 6.209 8 4C8 1.791 6.209 0 4 0C1.791 0 0 1.791 0 4C0 6.209 1.791 8 4 8Z" fill="#13B58C"/>
<path id="Path_2" fill-rule="evenodd" clip-rule="evenodd" d="M29 8C31.209 8 33 6.209 33 4C33 1.791 31.209 0 29 0C26.791 0 25 1.791 25 4C25 6.209 26.791 8 29 8Z" fill="#ECEBED"/>
<path id="Path_3" fill-rule="evenodd" clip-rule="evenodd" d="M56 8C58.209 8 60 6.209 60 4C60 1.791 58.209 0 56 0C53.791 0 52 1.791 52 4C52 6.209 53.791 8 56 8Z" fill="#ECEBED"/>
</g>
</g>
</svg>
