<svg width="16" height="16" viewBox="0 0 16 16" fill="none" xmlns="http://www.w3.org/2000/svg">
<g id="icon/UI/Category">
<path id="Vector" d="M4.75007 6.92857V9.07143C4.75007 9.42647 4.45626 9.71429 4.09382 9.71429H1.323C0.960557 9.71429 0.666748 9.42647 0.666748 9.07143V6.92857C0.666748 6.57353 0.960557 6.28571 1.323 6.28571H4.09382C4.45626 6.28571 4.75007 6.57353 4.75007 6.92857ZM0.666748 11.2143V13.3571C0.666748 13.7122 0.960557 14 1.323 14H4.09382C4.45626 14 4.75007 13.7122 4.75007 13.3571V11.2143C4.75007 10.8592 4.45626 10.5714 4.09382 10.5714H1.323C0.960557 10.5714 0.666748 10.8592 0.666748 11.2143ZM4.09382 2H1.323C0.960557 2 0.666748 2.28781 0.666748 2.64286V4.78571C0.666748 5.14076 0.960557 5.42857 1.323 5.42857H4.09382C4.45626 5.42857 4.75007 5.14076 4.75007 4.78571V2.64286C4.75007 2.28781 4.45626 2 4.09382 2ZM6.28132 14H14.0105C14.3729 14 14.6667 13.7122 14.6667 13.3571V11.2143C14.6667 10.8592 14.3729 10.5714 14.0105 10.5714H6.28132C5.91888 10.5714 5.62507 10.8592 5.62507 11.2143V13.3571C5.62507 13.7122 5.91888 14 6.28132 14ZM5.62507 2.64286V4.78571C5.62507 5.14076 5.91888 5.42857 6.28132 5.42857H14.0105C14.3729 5.42857 14.6667 5.14076 14.6667 4.78571V2.64286C14.6667 2.28781 14.3729 2 14.0105 2H6.28132C5.91888 2 5.62507 2.28781 5.62507 2.64286ZM6.28132 9.71429H14.0105C14.3729 9.71429 14.6667 9.42647 14.6667 9.07143V6.92857C14.6667 6.57353 14.3729 6.28571 14.0105 6.28571H6.28132C5.91888 6.28571 5.62507 6.57353 5.62507 6.92857V9.07143C5.62507 9.42647 5.91888 9.71429 6.28132 9.71429Z" fill="white"/>
</g>
</svg>
