<svg width="24" height="24" viewBox="0 0 24 24" fill="none" xmlns="http://www.w3.org/2000/svg">
<g id="icon/UI/Delete">
<path id="Vector" d="M18.4167 6.7H16.0833V5.2C16.0833 4.53813 15.5602 4 14.9167 4H9.08333C8.43984 4 7.91667 4.53813 7.91667 5.2V6.7H5.58333C5.26068 6.7 5 6.96813 5 7.3V7.9C5 7.9825 5.06562 8.05 5.14583 8.05H6.24687L6.69714 17.8563C6.7263 18.4956 7.24036 19 7.86198 19H16.138C16.7615 19 17.2737 18.4975 17.3029 17.8563L17.7531 8.05H18.8542C18.9344 8.05 19 7.9825 19 7.9V7.3C19 6.96813 18.7393 6.7 18.4167 6.7ZM14.7708 6.7H9.22917V5.35H14.7708V6.7Z" fill="white"/>
</g>
</svg>
