<svg width="16" height="16" viewBox="0 0 16 16" fill="none" xmlns="http://www.w3.org/2000/svg">
<g id="icon/UI/Maps">
<path id="Vector" d="M7.15289 14.3978C3.36909 8.91243 2.66675 8.34946 2.66675 6.3335C2.66675 3.57206 4.90532 1.3335 7.66675 1.3335C10.4282 1.3335 12.6667 3.57206 12.6667 6.3335C12.6667 8.34946 11.9644 8.91243 8.1806 14.3978C7.93229 14.7565 7.40118 14.7565 7.15289 14.3978ZM7.66675 8.41683C8.81735 8.41683 9.75008 7.48409 9.75008 6.3335C9.75008 5.1829 8.81735 4.25016 7.66675 4.25016C6.51615 4.25016 5.58341 5.1829 5.58341 6.3335C5.58341 7.48409 6.51615 8.41683 7.66675 8.41683Z" fill="white"/>
</g>
</svg>
