<svg width="24" height="24" viewBox="0 0 24 24" fill="none" xmlns="http://www.w3.org/2000/svg">
<g id="icon/UI/Pick Location" opacity="0.2">
<path id="Vector" d="M21.447 6.10572L15.447 3.10572C15.3081 3.0362 15.1549 3 14.9995 3C14.8441 3 14.6909 3.0362 14.552 3.10572L9 5.88272L3.447 3.10572C3.2945 3.02951 3.12506 2.99356 2.95476 3.00127C2.78446 3.00899 2.61895 3.06011 2.47397 3.14978C2.32899 3.23946 2.20933 3.36471 2.12638 3.51364C2.04342 3.66257 1.99992 3.83024 2 4.00072V17.0007C2 17.3797 2.214 17.7257 2.553 17.8957L8.553 20.8957C8.69193 20.9652 8.84515 21.0014 9.0005 21.0014C9.15585 21.0014 9.30907 20.9652 9.448 20.8957L15 18.1187L20.553 20.8947C20.7051 20.9716 20.8744 21.0081 21.0446 21.0006C21.2149 20.993 21.3803 20.9418 21.525 20.8517C21.82 20.6687 22 20.3477 22 20.0007V7.00072C22 6.62172 21.786 6.27572 21.447 6.10572ZM10 7.61872L14 5.61872V16.3827L10 18.3827V7.61872ZM4 5.61872L8 7.61872V18.3827L4 16.3827V5.61872ZM20 18.3827L16 16.3827V5.61872L20 7.61872V18.3827Z" fill="black"/>
</g>
</svg>
