<svg width="16" height="16" viewBox="0 0 16 16" fill="none" xmlns="http://www.w3.org/2000/svg">
<g id="icon/UI/Sort List">
<path id="Vector" d="M9.37509 12.2857H7.54176C7.4202 12.2857 7.30362 12.3309 7.21767 12.4112C7.13172 12.4916 7.08343 12.6006 7.08343 12.7143V13.5714C7.08343 13.6851 7.13172 13.7941 7.21767 13.8745C7.30362 13.9548 7.4202 14 7.54176 14H9.37509C9.49665 14 9.61323 13.9548 9.69918 13.8745C9.78513 13.7941 9.83342 13.6851 9.83342 13.5714V12.7143C9.83342 12.6006 9.78513 12.4916 9.69918 12.4112C9.61323 12.3309 9.49665 12.2857 9.37509 12.2857ZM5.70843 10.5714H4.33343V2.42857C4.33343 2.31491 4.28514 2.2059 4.19919 2.12553C4.11323 2.04515 3.99666 2 3.8751 2H2.95843C2.83688 2 2.7203 2.04515 2.63434 2.12553C2.54839 2.2059 2.5001 2.31491 2.5001 2.42857V10.5714H1.1251C0.718619 10.5714 0.512942 11.0332 0.801692 11.3029L3.09335 13.8744C3.1793 13.9547 3.29583 13.9998 3.41734 13.9998C3.53884 13.9998 3.65538 13.9547 3.74132 13.8744L6.03299 11.3029C6.32002 11.0337 6.11577 10.5714 5.70843 10.5714ZM13.0417 5.42857H7.54176C7.4202 5.42857 7.30362 5.47372 7.21767 5.5541C7.13172 5.63447 7.08343 5.74348 7.08343 5.85714V6.71429C7.08343 6.82795 7.13172 6.93696 7.21767 7.01733C7.30362 7.0977 7.4202 7.14286 7.54176 7.14286H13.0417C13.1633 7.14286 13.2799 7.0977 13.3658 7.01733C13.4518 6.93696 13.5001 6.82795 13.5001 6.71429V5.85714C13.5001 5.74348 13.4518 5.63447 13.3658 5.5541C13.2799 5.47372 13.1633 5.42857 13.0417 5.42857ZM11.2084 8.85714H7.54176C7.4202 8.85714 7.30362 8.9023 7.21767 8.98267C7.13172 9.06304 7.08343 9.17205 7.08343 9.28571V10.1429C7.08343 10.2565 7.13172 10.3655 7.21767 10.4459C7.30362 10.5263 7.4202 10.5714 7.54176 10.5714H11.2084C11.33 10.5714 11.4466 10.5263 11.5325 10.4459C11.6185 10.3655 11.6668 10.2565 11.6668 10.1429V9.28571C11.6668 9.17205 11.6185 9.06304 11.5325 8.98267C11.4466 8.9023 11.33 8.85714 11.2084 8.85714ZM14.8751 2H7.54176C7.4202 2 7.30362 2.04515 7.21767 2.12553C7.13172 2.2059 7.08343 2.31491 7.08343 2.42857V3.28571C7.08343 3.39938 7.13172 3.50839 7.21767 3.58876C7.30362 3.66913 7.4202 3.71429 7.54176 3.71429H14.8751C14.9966 3.71429 15.1132 3.66913 15.1992 3.58876C15.2851 3.50839 15.3334 3.39938 15.3334 3.28571V2.42857C15.3334 2.31491 15.2851 2.2059 15.1992 2.12553C15.1132 2.04515 14.9966 2 14.8751 2Z" fill="white"/>
</g>
</svg>
