<svg width="22" height="18" viewBox="0 0 22 18" fill="none" xmlns="http://www.w3.org/2000/svg">
<g id="fa-solid:store" clip-path="url(#clip0_3354_365)">
<path id="Vector" d="M21.5004 4.16953L19.1826 0.527344C18.9754 0.200391 18.6076 0 18.2147 0H3.78615C3.39329 0 3.02543 0.200391 2.81829 0.527344L0.500431 4.16953C-0.695997 6.05039 0.364717 8.66602 2.60043 8.96484C2.76115 8.98594 2.92543 8.99648 3.08972 8.99648C4.14686 8.99648 5.08257 8.53945 5.72543 7.83281C6.36829 8.53945 7.30757 8.99648 8.36115 8.99648C9.41829 8.99648 10.354 8.53945 10.9969 7.83281C11.6397 8.53945 12.579 8.99648 13.6326 8.99648C14.6897 8.99648 15.6254 8.53945 16.2683 7.83281C16.9147 8.53945 17.8504 8.99648 18.904 8.99648C19.0719 8.99648 19.2326 8.98594 19.3933 8.96484C21.6361 8.66953 22.7004 6.05391 21.5004 4.16953ZM18.9111 10.125C18.554 10.125 18.2004 10.0723 17.8576 9.99141V13.5H4.14329V9.99141C3.80043 10.0688 3.44686 10.125 3.08972 10.125C2.87543 10.125 2.65757 10.1109 2.44686 10.0828C2.24686 10.0547 2.05043 10.009 1.86115 9.95625V16.875C1.86115 17.4973 2.37186 18 3.004 18H19.004C19.6361 18 20.1469 17.4973 20.1469 16.875V9.95625C19.954 10.0125 19.7611 10.0582 19.5611 10.0828C19.3433 10.1109 19.129 10.125 18.9111 10.125Z" fill="#000"/>
</g>
<defs>
<clipPath id="clip0_3354_365">
<rect width="22" height="18" fill="white"/>
</clipPath>
</defs>
</svg>
